<svg xmlns="http://www.w3.org/2000/svg" xmlns:xlink="http://www.w3.org/1999/xlink"><defs><style>
    .sprite-symbol-usage {display: none;}
    .sprite-symbol-usage:target {display: inline;}
  </style><symbol class="icon" viewBox="0 0 1024 1024" id="folder"><defs><style type="text/css"></style></defs><path d="M819.2 358.4H450.4576L382.208 256H153.6v512h665.6V358.4zM477.8496 307.2H819.2a51.2 51.2 0 0 1 51.2 51.2v409.6a51.2 51.2 0 0 1-51.2 51.2H153.6a51.2 51.2 0 0 1-51.2-51.2V256a51.2 51.2 0 0 1 51.2-51.2h228.608a51.2 51.2 0 0 1 42.5984 22.784L477.8496 307.2z" fill="#000000" p-id="3715" /></symbol><symbol class="icon" viewBox="0 0 1024 1024" id="image"><defs><style type="text/css"></style></defs><path d="M928 128H96C42.98 128 0 170.98 0 224v576c0 53.02 42.98 96 96 96h832c53.02 0 96-42.98 96-96V224c0-53.02-42.98-96-96-96z m-12 672H108a12 12 0 0 1-12-12V236a12 12 0 0 1 12-12h808a12 12 0 0 1 12 12v552a12 12 0 0 1-12 12zM256 304c-44.182 0-80 35.818-80 80s35.818 80 80 80 80-35.818 80-80-35.818-80-80-80zM192 704h640v-160l-175.03-175.03c-9.372-9.372-24.568-9.372-33.942 0L384 608l-79.03-79.03c-9.372-9.372-24.568-9.372-33.942 0L192 608v96z" p-id="4257" fill="#bfbfbf" /></symbol><symbol class="icon" viewBox="0 0 1024 1024" id="upload"><defs><style type="text/css"></style></defs><path d="M614.912 768v-51.2H716.8a153.6 153.6 0 0 0 35.3792-303.104l-32.6656-7.68-5.9904-33.0752a204.8512 204.8512 0 0 0-403.0464 0l-5.9904 33.024-32.6656 7.68A153.6512 153.6512 0 0 0 307.2 716.8h103.3216v51.2H307.2a204.8 204.8 0 0 1-47.104-404.1728 256.1024 256.1024 0 0 1 503.808 0A204.9024 204.9024 0 0 1 716.8 768h-101.888z m0 0v-51.2H716.8a153.6 153.6 0 0 0 35.3792-303.104l-32.6656-7.68-5.9904-33.0752a204.8512 204.8512 0 0 0-403.0464 0l-5.9904 33.024-32.6656 7.68A153.6512 153.6512 0 0 0 307.2 716.8h103.3216v51.2H307.2a204.8 204.8 0 0 1-47.104-404.1728 256.1024 256.1024 0 0 1 503.808 0A204.9024 204.9024 0 0 1 716.8 768h-101.888z" fill="#000000" p-id="3824" /><path d="M486.4 486.4h51.2v370.176h-51.2z" fill="#000000" p-id="3825" /><path d="M376.5248 632.5248l-36.2496-36.2496L512 424.6016l171.7248 171.6736-36.2496 36.2496L512 496.9984z" fill="#000000" p-id="3826" /></symbol></defs><use id="folder-usage" xlink:href="#folder" class="sprite-symbol-usage" /><use id="image-usage" xlink:href="#image" class="sprite-symbol-usage" /><use id="upload-usage" xlink:href="#upload" class="sprite-symbol-usage" /></svg>